<?xml version="1.0" encoding="UTF-8" standalone="no"?>
<!-- Created with Inkscape (http://www.inkscape.org/) -->

<svg
   width="160mm"
   height="90mm"
   viewBox="0 0 160 90"
   version="1.1"
   id="svg1"
   sodipodi:docname="background_f.svg"
   inkscape:version="1.4.2 (f4327f4, 2025-05-13)"
   xmlns:inkscape="http://www.inkscape.org/namespaces/inkscape"
   xmlns:sodipodi="http://sodipodi.sourceforge.net/DTD/sodipodi-0.dtd"
   xmlns:xlink="http://www.w3.org/1999/xlink"
   xmlns="http://www.w3.org/2000/svg"
   xmlns:svg="http://www.w3.org/2000/svg">
  <sodipodi:namedview
     id="namedview1"
     pagecolor="#ffffff"
     bordercolor="#000000"
     borderopacity="0.25"
     inkscape:showpageshadow="2"
     inkscape:pageopacity="0.0"
     inkscape:pagecheckerboard="0"
     inkscape:deskcolor="#d1d1d1"
     inkscape:document-units="mm"
     inkscape:zoom="1.1862153"
     inkscape:cx="182.93475"
     inkscape:cy="62.804789"
     inkscape:window-width="1920"
     inkscape:window-height="1009"
     inkscape:window-x="-8"
     inkscape:window-y="-8"
     inkscape:window-maximized="1"
     inkscape:current-layer="svg1" />
  <defs
     id="defs1">
    <linearGradient
       id="linearGradient1">
      <stop
         style="stop-color:#fff0d9;stop-opacity:1;"
         offset="0"
         id="stop1" />
      <stop
         style="stop-color:#fffcf9;stop-opacity:1;"
         offset="1"
         id="stop2" />
    </linearGradient>
    <radialGradient
       xlink:href="#linearGradient1"
       id="radialGradient2"
       cx="84.934967"
       cy="46.024117"
       fx="84.934967"
       fy="46.024117"
       r="80"
       gradientTransform="matrix(0.71056885,0,0,0.71434415,24.582826,13.147058)"
       gradientUnits="userSpaceOnUse" />
  </defs>
  <g
     id="layer1"
     transform="translate(-4.9349694,-1.0241175)">
    <rect
       style="fill:url(#radialGradient2);stroke:none;stroke-width:0.605999;stroke-linejoin:round;stroke-opacity:1"
       id="rect1"
       width="160"
       height="90"
       x="4.9349694"
       y="1.0241175"
       ry="0" />
    <path
       id="path17"
       style="fill:#ffcc00;fill-opacity:1;stroke:none;stroke-width:0.262456;stroke-linejoin:round;stroke-opacity:1"
       d="m 23.300046,12.749397 c -2.5e-5,5.23e-4 2.3e-5,10e-4 0,0.0015 -0.230072,5.047078 -3.751004,5.264631 -4.200705,5.271828 h 4.203389 0.0062 4.203389 c -0.449659,-0.0072 -3.969853,-0.224807 -4.200512,-5.270526 -0.0018,-0.215848 -0.009,-0.221574 -0.0117,-0.0029 z m 4.21221,5.273396 c -0.07254,0 -2e-6,8.58e-4 0,5.24e-4 -0.07171,-8.1e-4 0,-5.24e-4 0,-5.24e-4 z m 0,5.24e-4 -4.19917,-0.0141 -4.213745,0.0141 c 0.449747,0.0072 3.971283,0.225074 4.200705,5.273659 l 0.0057,0.146787 0.006,-0.149661 c 0.230658,-5.045702 3.750853,-5.263572 4.200512,-5.270768 z m -8.412915,0 c -0.01004,-1.6e-4 -0.01842,-2.59e-4 -0.02531,-2.61e-4 0.0068,-2e-6 0.01532,-1.02e-4 0.02531,-2.62e-4 h -0.04699 c 0,0 0.0071,2.56e-4 0.02071,2.62e-4 -0.01364,5e-6 -0.02071,2.61e-4 -0.02071,2.61e-4 z" />
    <path
       id="path18"
       style="fill:#ffcc00;fill-opacity:1;stroke:none;stroke-width:0.168182;stroke-linejoin:round;stroke-opacity:1"
       d="m 23.29368,67.721083 c -1.6e-5,3.35e-4 1.4e-5,6.71e-4 0,9.9e-4 -0.14743,3.234167 -2.403643,3.373575 -2.691812,3.378187 h 2.693532 0.004 2.693531 c -0.288141,-0.0046 -2.543882,-0.144056 -2.691687,-3.377352 -0.0011,-0.138316 -0.0058,-0.141985 -0.0075,-0.0018 z m 2.699183,3.379192 c -0.04648,0 -1e-6,5.49e-4 0,3.36e-4 -0.04595,-5.19e-4 0,-3.36e-4 0,-3.36e-4 z m 0,3.36e-4 -2.690827,-0.009 -2.700168,0.009 c 0.288198,0.0046 2.544798,0.144227 2.691812,3.379359 l 0.0037,0.09406 0.0038,-0.0959 c 0.147806,-3.233285 2.403546,-3.372896 2.691688,-3.377507 z m -5.390995,0 c -0.0064,-1.03e-4 -0.0118,-1.66e-4 -0.01622,-1.68e-4 0.0044,-10e-7 0.0098,-6.5e-5 0.01622,-1.67e-4 h -0.03011 c 0,0 0.0045,1.64e-4 0.01327,1.67e-4 -0.0087,4e-6 -0.01327,1.68e-4 -0.01327,1.68e-4 z" />
    <path
       id="path19"
       style="fill:#ffcc00;fill-opacity:1;stroke:none;stroke-width:0.272656;stroke-linejoin:round;stroke-opacity:1"
       d="m 37.519472,38.550051 c -2.5e-5,5.44e-4 2.4e-5,0.0011 0,0.0016 -0.239012,5.243225 -3.89678,5.469233 -4.363958,5.47671 h 4.366747 0.0064 4.366747 c -0.467134,-0.0075 -4.124135,-0.233544 -4.363758,-5.475357 -0.0018,-0.224236 -0.0094,-0.230185 -0.01215,-0.003 z m 4.375911,5.478339 c -0.07535,0 -2e-6,8.91e-4 0,5.45e-4 -0.07449,-8.42e-4 0,-5.45e-4 0,-5.45e-4 z m 0,5.45e-4 -4.362363,-0.01465 -4.377506,0.01465 c 0.467226,0.0075 4.125621,0.23382 4.363958,5.47861 l 0.006,0.152492 0.0062,-0.155477 c 0.239623,-5.241796 3.896624,-5.468132 4.363758,-5.475608 z m -8.739869,0 c -0.01043,-1.67e-4 -0.01913,-2.7e-4 -0.0263,-2.72e-4 0.0071,-2e-6 0.01591,-1.06e-4 0.0263,-2.72e-4 h -0.04882 c 0,0 0.0073,2.66e-4 0.02152,2.72e-4 -0.01417,6e-6 -0.02152,2.72e-4 -0.02152,2.72e-4 z" />
    <path
       id="path20"
       style="fill:#ffcc00;fill-opacity:1;stroke:none;stroke-width:0.303874;stroke-linejoin:round;stroke-opacity:1"
       d="m 140.42034,13.789187 c -4e-5,6.07e-4 2e-5,0.0012 0,0.0018 -0.26638,5.843562 -4.34296,6.095447 -4.86362,6.10378 h 4.86673 0.007 4.86673 c -0.52062,-0.0084 -4.59635,-0.260284 -4.8634,-6.102272 -0.002,-0.249911 -0.0101,-0.256541 -0.0135,-0.0033 z m 4.87694,6.105597 c -0.0839,0 0,9.67e-4 0,6.07e-4 -0.083,-9.67e-4 0,-6.07e-4 0,-6.07e-4 z m 0,6.07e-4 -4.86184,-0.01633 -4.87872,0.01633 c 0.52072,0.0084 4.59799,0.260592 4.86362,6.105898 l 0.007,0.169952 0.007,-0.173279 c 0.26706,-5.841969 4.34278,-6.09422 4.8634,-6.102552 z m -9.74056,0 c -0.0116,-1.86e-4 -0.0213,-3.01e-4 -0.0293,-3.03e-4 0.008,-2e-6 0.0177,-1.18e-4 0.0293,-3.03e-4 h -0.0544 c 0,0 0.008,2.96e-4 0.024,3.03e-4 -0.0159,7e-6 -0.024,3.03e-4 -0.024,3.03e-4 z" />
    <path
       id="path21"
       style="fill:#ffcc00;fill-opacity:1;stroke:none;stroke-width:0.222458;stroke-linejoin:round;stroke-opacity:1"
       d="m 143.9696,64.81428 c -3e-5,4.45e-4 10e-6,8.79e-4 0,0.0013 -0.19501,4.277916 -3.17937,4.462314 -3.56053,4.468415 h 3.56281 0.005 3.5628 c -0.38113,-0.0061 -3.36486,-0.190547 -3.56036,-4.467311 -0.001,-0.182953 -0.007,-0.187807 -0.01,-0.0024 z m 3.57028,4.469745 c -0.0614,0 0,7.08e-4 0,4.45e-4 -0.0608,-7.08e-4 0,-4.45e-4 0,-4.45e-4 z m 0,4.45e-4 -3.55923,-0.01196 -3.57158,0.01196 c 0.38121,0.0061 3.36607,0.190772 3.56053,4.469965 l 0.005,0.124417 0.005,-0.126853 c 0.1955,-4.27675 3.17923,-4.461416 3.56036,-4.467516 z m -7.13081,0 c -0.008,-1.37e-4 -0.0156,-2.21e-4 -0.0215,-2.22e-4 0.006,-2e-6 0.013,-8.7e-5 0.0215,-2.22e-4 h -0.0398 c 0,0 0.006,2.17e-4 0.0176,2.22e-4 -0.0116,5e-6 -0.0176,2.22e-4 -0.0176,2.22e-4 z" />
    <path
       id="path23"
       style="fill:#ffb700;fill-opacity:1;stroke:none;stroke-width:0.208179;stroke-linejoin:round;stroke-opacity:1"
       d="m 23.296383,13.838507 c -2e-5,4.15e-4 1.9e-5,7.94e-4 0,0.0012 -0.182492,4.00332 -2.975279,4.175882 -3.33198,4.181591 h 3.334109 0.0049 3.33411 c -0.356668,-0.0057 -3.14887,-0.178316 -3.331828,-4.180558 -0.0014,-0.17121 -0.0071,-0.175752 -0.0093,-0.0023 z m 3.341107,4.182835 c -0.05754,0 -2e-6,6.8e-4 0,4.15e-4 -0.05688,-6.42e-4 0,-4.15e-4 0,-4.15e-4 z m 0,4.15e-4 -3.330763,-0.01118 -3.342324,0.01118 c 0.356737,0.0057 3.150004,0.178528 3.33198,4.183043 l 0.0045,0.116431 0.0048,-0.11871 c 0.182957,-4.002229 2.97516,-4.175042 3.331827,-4.18075 z m -6.673087,0 c -0.008,-1.27e-4 -0.01461,-2.05e-4 -0.02008,-2.07e-4 0.0054,-1e-6 0.01215,-8.1e-5 0.02008,-2.08e-4 h -0.03727 c 0,0 0.0056,2.04e-4 0.01643,2.08e-4 -0.01082,4e-6 -0.01643,2.07e-4 -0.01643,2.07e-4 z" />
    <path
       id="path24"
       style="fill:#ffb700;fill-opacity:1;stroke:none;stroke-width:0.226223;stroke-linejoin:round;stroke-opacity:1"
       d="m 37.516337,39.481766 c -2.1e-5,4.52e-4 2e-5,9.13e-4 0,0.0013 -0.198309,4.350311 -3.233164,4.53783 -3.620782,4.544034 h 3.623096 0.0053 3.623096 c -0.387582,-0.0062 -3.421801,-0.193772 -3.620616,-4.542911 -0.0015,-0.186049 -0.0078,-0.190985 -0.01008,-0.0025 z m 3.630699,4.545386 c -0.06252,0 -10e-7,7.39e-4 0,4.52e-4 -0.0618,-6.98e-4 0,-4.52e-4 0,-4.52e-4 z m 0,4.52e-4 -3.619458,-0.01215 -3.632023,0.01215 c 0.387658,0.0062 3.423033,0.194001 3.620782,4.545611 l 0.005,0.126523 0.0051,-0.129 c 0.198816,-4.349126 3.233035,-4.536917 3.620616,-4.54312 z m -7.251481,0 c -0.0087,-1.38e-4 -0.01587,-2.24e-4 -0.02182,-2.25e-4 0.0059,-2e-6 0.0132,-8.8e-5 0.02182,-2.26e-4 h -0.04051 c 0,0 0.0061,2.21e-4 0.01785,2.26e-4 -0.01176,5e-6 -0.01785,2.25e-4 -0.01785,2.25e-4 z" />
    <path
       id="path25"
       style="fill:#ffb700;fill-opacity:1;stroke:none;stroke-width:0.119108;stroke-linejoin:round;stroke-opacity:1"
       d="m 23.29037,68.705798 c -1.1e-5,2.37e-4 10e-6,4.76e-4 0,7.02e-4 -0.104411,2.290461 -1.702278,2.389191 -1.906361,2.392456 h 1.907579 0.0028 1.907579 c -0.204064,-0.0032 -1.801597,-0.102021 -1.906273,-2.391865 -7.79e-4,-0.09796 -0.0041,-0.100555 -0.0053,-0.0013 z m 1.911581,2.39317 c -0.03292,0 0,3.88e-4 0,2.37e-4 -0.03254,-3.67e-4 0,-2.37e-4 0,-2.37e-4 z m 0,2.37e-4 -1.905663,-0.0064 -1.912279,0.0064 c 0.204104,0.0032 1.802245,0.102143 1.906361,2.393287 l 0.0026,0.06661 0.0027,-0.06792 c 0.104677,-2.289837 1.702209,-2.388711 1.906274,-2.391976 z m -3.817942,0 c -0.0045,-7.2e-5 -0.0084,-1.17e-4 -0.01149,-1.19e-4 0.0031,-10e-7 0.007,-4.6e-5 0.01149,-1.18e-4 h -0.02132 c 0,0 0.0032,1.17e-4 0.0094,1.18e-4 -0.0062,3e-6 -0.0094,1.19e-4 -0.0094,1.19e-4 z" />
    <path
       id="path26"
       style="fill:#ffb700;fill-opacity:1;stroke:none;stroke-width:0.246417;stroke-linejoin:round;stroke-opacity:1"
       d="m 140.41649,14.942106 c -4e-5,4.92e-4 1e-5,10e-4 0,0.0015 -0.21602,4.738658 -3.52179,4.942916 -3.94401,4.949674 h 3.94652 0.005 3.94652 c -0.42218,-0.0068 -3.72726,-0.211069 -3.94382,-4.948451 -0.002,-0.202658 -0.008,-0.208035 -0.0109,-0.0026 z m 3.9548,4.951148 c -0.068,0 0,7.84e-4 0,4.92e-4 -0.0673,-7.84e-4 0,-4.92e-4 0,-4.92e-4 z m 0,4.92e-4 -3.94257,-0.01325 -3.95624,0.01325 c 0.42226,0.0068 3.7286,0.21132 3.94401,4.951392 l 0.005,0.137817 0.005,-0.140515 c 0.21656,-4.737366 3.52164,-4.941922 3.94382,-4.948678 z m -7.89881,0 c -0.009,-1.51e-4 -0.0173,-2.44e-4 -0.0237,-2.45e-4 0.006,-2e-6 0.0144,-9.6e-5 0.0237,-2.46e-4 h -0.0441 c 0,0 0.006,2.4e-4 0.0195,2.46e-4 -0.0129,5e-6 -0.0195,2.45e-4 -0.0195,2.45e-4 z" />
    <path
       id="path27"
       style="fill:#ffb700;fill-opacity:1;stroke:none;stroke-width:0.171285;stroke-linejoin:round;stroke-opacity:1"
       d="m 143.96615,65.841106 c -2e-5,3.42e-4 1e-5,6.77e-4 0,9.57e-4 -0.15015,3.29385 -2.44801,3.43583 -2.74149,3.440528 h 2.74324 0.003 2.74324 c -0.29346,-0.0047 -2.59083,-0.146715 -2.74136,-3.439678 -7.7e-4,-0.140868 -0.005,-0.144605 -0.008,-0.0018 z m 2.74899,3.441552 c -0.0472,0 0,5.44e-4 0,3.43e-4 -0.0468,-5.46e-4 0,-3.43e-4 0,-3.43e-4 z m 0,3.43e-4 -2.74048,-0.0092 -2.75,0.0092 c 0.29352,0.0047 2.59176,0.146888 2.74149,3.44172 l 0.003,0.0958 0.003,-0.09767 c 0.15053,-3.292952 2.4479,-3.435139 2.74135,-3.439836 z m -5.49048,0 c -0.006,-1.07e-4 -0.012,-1.71e-4 -0.0165,-1.72e-4 0.004,-2e-6 0.01,-6.7e-5 0.0165,-1.7e-4 h -0.0306 c 0,0 0.004,1.67e-4 0.0136,1.7e-4 -0.009,4e-6 -0.0136,1.72e-4 -0.0136,1.72e-4 z" />
  </g>
</svg>
